<?xml version="1.0" encoding="UTF-8" standalone="no"?>
<!-- Created with Inkscape (http://www.inkscape.org/) -->

<svg
   width="596.76306mm"
   height="590.52509mm"
   viewBox="0 0 596.76306 590.52509"
   version="1.1"
   id="svg1"
   xmlns:inkscape="http://www.inkscape.org/namespaces/inkscape"
   xmlns:sodipodi="http://sodipodi.sourceforge.net/DTD/sodipodi-0.dtd"
   xmlns="http://www.w3.org/2000/svg"
   xmlns:svg="http://www.w3.org/2000/svg"
   xmlns:rdf="http://www.w3.org/1999/02/22-rdf-syntax-ns#"
   xmlns:cc="http://creativecommons.org/ns#"
   xmlns:dc="http://purl.org/dc/elements/1.1/">
  <title
     id="title1">Sergius Portrait </title>
  <sodipodi:namedview
     id="namedview1"
     pagecolor="#ffffff"
     bordercolor="#000000"
     borderopacity="0.25"
     inkscape:showpageshadow="2"
     inkscape:pageopacity="0.0"
     inkscape:pagecheckerboard="0"
     inkscape:deskcolor="#d1d1d1"
     inkscape:document-units="mm" />
  <defs
     id="defs1">
    <inkscape:path-effect
       effect="powerclip"
       id="path-effect19"
       is_visible="true"
       lpeversion="1"
       inverse="true"
       flatten="false"
       hide_clip="false"
       message="Füllregel Gerade-Ungerade im &lt;b&gt;Füllung und Kontur&lt;/b&gt;-Dialog verwenden, wenn das Anwenden des Ausschnitts mit nachfolgendem Umwandeln in Pfade kein Ergebnis bringt" />
    <clipPath
       clipPathUnits="userSpaceOnUse"
       id="clipPath10">
      <path
         style="display:inline;fill:#383838;stroke-width:1.45354"
         d="m 148.15155,600.0102 c -24.91498,5.29231 -51.451078,-5.72875 -42.3304,-35.54444 0.29578,-29.2867 0.2073,-59.50942 0.53344,-87.95573 -0.85585,-9.53188 -0.13615,-20.55918 0.0416,-28.98788 -0.38583,-37.73466 -0.53879,-80.69165 -0.53586,-120.80605 1.07435,-77.6617 -2.72632,-155.52653 3.05411,-233.047536 2.1125,-30.629378 12.60955,-67.4621 45.33271,-77.865635 48.40688,-14.98280938 99.98934,-9.7122347 149.94663,-11.1236622 47.44511,1.3001747 96.69021,-3.69296305 142.3125,12.0916282 38.3359,14.299472 47.59872,58.65777 51.27503,94.875645 7.6667,90.61025 3.81656,181.69105 4.75567,272.51843 -1.16488,63.62465 2.08801,127.70041 -6.04877,190.95572 -1.29773,33.56658 -39.68459,24.23583 -62.29702,24.3468 -7.71231,0.13123 -15.77372,0.43032 -26.45714,0.54464 -17.2198,-0.89566 -32.37561,0.53264 -49.82464,-0.42846 -4.53665,0.18973 -19.10921,0.17317 -27.69571,0.46503 -8.38637,-1.81843 -25.39437,1.78345 -35.2266,-0.80359 -8.52845,1.7078 -24.79569,0.29895 -30.79477,0.3384 -6.66033,0.24985 -23.74571,0.90567 -30.92419,-0.11628 -8.19406,1.0297 -25.84811,-0.22289 -33.96179,0.58142 -1.67711,-1.06389 -3.45821,-0.23318 -5.58871,-0.40582 -13.2951,0.0262 -30.95402,0.53385 -45.56607,0.36743 z m 85.1095,-52.52127 c 2.66684,-0.61262 -2.66682,-0.61267 0,0 z m -108.17075,-8.3724 c 2.34213,-0.88262 -1.68684,-1.44475 0,0 z m 31.87404,-10.23291 c 1.74907,-2.59501 -3.01183,-2.48746 0,0 z m -12.60541,-2.51405 c 6.07626,-9.2533 -3.90604,3.2367 0,0 z m -11.82806,0.11658 c 2.52048,-1.33353 -2.13009,-1.38795 0,0 z m 29.45935,-5.52434 c -0.26359,-3.45843 -3.88968,-1.90246 0,0 z m -12.68558,-2.58639 c 4.1083,-4.68714 -3.95975,1.25998 0,0 z m -9.44801,-4.01746 c 2.48483,-1.65581 -2.09042,-1.60924 0,0 z m 26.45109,-0.19822 c 0.82426,-5.07431 -4.08446,-2.68407 0,0 z m -12.58432,-1.09056 c 10.89462,-12.46301 9.29437,-20.28989 0,0 z m 41.16422,0 c 2.45078,-1.15321 -2.45077,-1.15321 0,0 z m -23.14034,-6.05036 c 2.04343,-2.51479 -3.8027,-2.65626 0,0 z m -24.58891,-4.18256 c 6.37593,-1.46764 -1.3383,-3.50086 0,0 z m 152.65246,-0.62394 c 6.90115,-0.9335 12.42438,-0.74922 19.28702,-1.66957 4.70413,0.01 13.75391,-1.87757 17.4226,-2.06759 12.16586,-2.62887 20.9881,-3.68274 32.35928,-7.78619 16.08661,-5.92751 25.78092,-20.59982 39.42233,-30.90005 16.10755,-14.8255 35.18213,-34.26232 28.26007,-58.35269 -2.88904,-17.89218 -21.55193,-19.80261 -33.8722,-16.74476 -2.29854,9.59027 -12.48539,-3.44895 -9.00409,13.50306 -2.79431,12.52807 -8.812,17.3514 -17.69946,28.22128 -5.46404,9.81739 -7.48442,18.54412 -10.54235,13.27832 -9.3454,-7.16782 -20.02985,18.4023 -27.598,11.62127 1.42987,-10.38788 8.46802,-23.71897 5.02608,-22.44172 2.11469,-10.88906 1.90191,-12.52939 -4.50125,-15.56448 -4.75668,-0.57724 -13.34555,22.58472 -25.53721,16.26272 -9.48428,4.30564 -1.94662,-11.8236 -9.57024,-3.01855 -4.0049,5.41255 -18.70745,-6.67579 -2.09312,-2.73384 -2.66176,-1.32014 29.30821,-4.30181 7.6844,-7.79957 -7.42215,-3.21725 -15.77856,-12.53038 -30.0196,-9.93259 -3.62109,-8.79406 -11.73126,-25.09017 -23.49532,-35.81519 -7.09585,-12.14673 -14.29334,-25.7855 -23.00908,-38.15546 -5.93695,3.2475 -0.33443,28.37146 -2.13059,41.29508 3.86576,10.2802 -6.53465,48.97353 -4.6635,19.02783 1.96802,-14.06784 -2.19786,-27.61477 -15.27961,-11.49509 -24.31588,-1.84097 -37.36669,16.64018 -57.66815,24.64634 -18.9298,-1.12697 3.63675,33.55671 -6.77281,8.25468 5.25791,0.24881 0.64702,-6.49661 6.38921,3.68268 -1.63559,-8.67119 5.49908,7.48718 1.2586,-8.08053 4.74175,11.75284 1.56197,-2.08264 5.33803,2.74807 -2.03464,-5.26958 9.40616,-1.67098 9.40197,-9.82959 12.85013,-11.35407 -0.54058,26.01206 9.69183,32.79185 7.9134,15.26857 25.18096,20.8321 35.56729,33.37732 16.84103,11.84944 34.49954,23.66764 54.04648,30.33046 7.10176,2.30894 27.14278,1.58218 31.4575,3.85249 l 0.84381,-0.50739 z m 32.69044,-53.33151 c -3.3777,-3.00529 4.91976,-2.32291 0,0 z m 29.60147,-7.44212 c -1.7228,-1.19218 1.66762,-1.78811 0,0 z m -179.9316,-9.76778 c -3.2489,-2.87076 1.10361,-3.27737 0,0 z m 130.83269,-0.46514 c -2.51442,-1.43801 3.1569,-0.82648 0,0 z m -131.28581,-4.03204 c -8.24628,-10.029 -2.62564,-27.87959 -2.13875,-35.18611 4.5425,-7.73663 43.77092,-12.96228 17.16888,-2.97024 -12.55461,-0.009 -18.66811,11.31197 -16.36788,19.76686 -1.05301,5.99331 2.543,12.58708 1.33775,18.38949 z m 156.08158,0.68758 c -3.23345,-2.5168 2.65173,-4.44916 0,0 z m 44.01481,-3.72428 c -3.1071,-1.1313 3.32312,-3.17058 0,0 z m -73.45852,-4.31371 c -16.84054,0.94091 12.43772,-4.25204 0,0 z m -5.60107,-0.71099 c -2.26049,-2.37903 1.64423,-2.49272 0,0 z m -14.05596,-6.04671 c -8.88378,-5.5349 1.82621,-3.49882 0,0 z m -137.29191,-1.16853 c -2.04497,-1.63121 0.73456,-3.25821 0,0 z m 146.62144,0.23826 c -8.25717,-3.47885 5.04359,0.17399 0,0 z m -6.58972,-0.46514 c -5.37003,-2.457 4.73147,-2.63737 0,0 z m -127.87373,-4.46434 c -3.6296,0.12705 0.97941,-3.81217 0,0 z m 232.07713,-8.55938 c -2.75439,-1.86251 1.50508,-2.5205 0,0 z m -172.06159,-1.9671 c -2.09042,-1.60925 2.48483,-1.65586 0,0 z m 8.75031,105.22654 c 2.66684,-0.61261 -2.66683,-0.61267 0,0 z m 13.68651,-2.33727 c 0.85575,-2.71362 -3.59786,1.19581 0,0 z m -69.15356,0.009 c 3.90488,-2.68873 -6.98526,-3.51401 0,0 z m 71.387,-0.92732 c 4.90975,-1.4874 -3.337,-0.87555 0,0 z m -84.7668,-1.76334 c 8.36001,-9.31325 -3.1689,-2.31502 0,0 z m 83.96366,-0.56237 c 3.23326,-1.12279 -3.23327,-1.12279 0,0 z m -66.17311,-4.57356 c 0.28281,-3.33518 -2.1333,0.70093 0,0 z m -26.67387,-0.0778 c 8.05806,-0.74007 -4.37278,-3.90766 0,0 z m 12.7279,-1.20613 c 7.48497,-4.76359 -2.90896,-0.84267 0,0 z m 69.30475,-1.6686 c 3.65598,-1.50415 -3.65599,-1.50415 0,0 z m -64.07201,-0.84634 c 2.16047,-1.2609 -2.16046,-1.2609 0,0 z m 60.72659,-0.93025 c -0.98177,-5.11387 -13.87881,-9.3871 0,0 z m -47.66412,-2.32566 c 2.09042,-1.60925 -2.48482,-1.65585 0,0 z m -12.79838,-1.27913 c 7.94259,-5.82155 11.71001,-9.03912 12.89706,-14.96838 7.09582,-12.77972 2.13654,-10.85998 -4.9092,4.86312 -1.26506,3.04985 -10.32843,6.60307 -7.98786,10.10526 z m 50.16044,-1.92421 c 8.93025,-0.22119 -5.16163,-6.60972 0,0 z m -60.21826,-0.51774 c 6.17382,-0.88939 -0.76141,-3.84413 0,0 z m 27.48001,-0.47445 c 1.98682,-2.20355 -2.52273,0.53073 0,0 z m 29.55212,-2.78148 c 3.25168,-2.45391 -4.22652,-1.37658 0,0 z m -25.02832,-1.44444 c 2.66995,-2.50196 -7.00093,-2.66761 0,0 z m 22.8401,-0.86006 c -3.87641,-6.24041 -6.73401,-0.8545 0,0 z m -5.19245,-3.27707 c -2.07681,-2.86221 -1.07673,-1.51765 0,0 z m -13.95435,-0.46514 c 1.17753,-1.73144 -2.28973,-1.61624 0,0 z m -27.99647,-0.48689 c 10.99458,-2.20557 -10.30135,-4.94533 0,0 z m 38.606,-0.90852 c 2.48128,-1.40759 -2.48129,-1.40756 0,0 z m -7.10975,-4.10814 c 2.7104,-1.23354 -5.45464,-0.92027 0,0 z m -24.2867,-5.45647 c 6.20651,-2.53426 -10.8053,-3.47065 0,0 z m 2.99591,-5.78475 c 2.34213,-0.88265 -1.68684,-1.44475 0,0 z m -2.7374,-1.86055 c 0.0342,-3.31316 -5.42176,-2.36725 0,0 z m 2.66158,-0.68207 c 5.55274,-4.68688 -9.32597,-17.89789 -9.43194,-26.59253 -2.90383,-5.54831 -4.08856,3.62382 -9.07009,1.45976 -4.26691,1.01561 19.23465,25.78495 2.92505,9.71106 5.93487,10.17918 2.55748,6.95044 15.57698,15.42171 z m -3.73407,-4.47108 c -5.50154,-1.44386 2.00846,-2.27778 0,0 z m -4.65132,-6.95505 c -12.93505,-12.57874 -6.86065,-14.36984 0,0 z m 1.37214,-1.84576 c -5.1713,-2.59821 2.19212,-2.97564 0,0 z m -3.00011,-4.20167 c -6.90946,-5.33865 -2.98952,-9.74187 0,0 z m 2.13005,-0.92948 c -6.87984,-4.3335 -2.0738,-9.57805 0,0 z m 1.22756,15.8292 c 1.6465,-1.94561 -2.30107,-1.66894 0,0 z m -13.61378,-0.93027 c 0.69824,-2.09878 -3.33229,-1.38753 0,0 z m -7.65485,-1.58576 c 0.12471,-2.04724 -2.47304,-1.16758 0,0 z m 7.53414,-2.4426 c -1.77852,-4.3959 -1.93672,0.9213 0,0 z m 5.72556,0.30115 c 0.40448,-2.75297 -3.69942,-2.27328 0,0 z m 0.4058,-2.78464 c 1.1605,-2.23091 -3.38917,-1.66216 0,0 z m -3.24144,-0.46513 c -3.89712,-8.03691 -9.95557,-10.22639 -1.54558,-1.27913 z m -6.90101,-1.42113 c -3.43139,-6.09558 -5.12564,-4.40701 0,0 z m -4.78238,-1.83481 c 1.92276,-2.03171 -3.6921,-1.80404 0,0 z m 10.13878,-2.55797 c -1.25341,-3.35504 0.68706,-8.56019 -4.62588,-11.26228 6.9702,8.41844 -4.90094,3.29592 4.62588,11.26228 z m -10.71923,-2.95931 c 0.26214,-2.35836 -1.94749,0.2149 0,0 z m -3.26763,-0.89516 c -0.22648,-2.98839 -2.29615,-0.97507 0,0 z m -12.57652,-2.14143 c -0.22647,-2.98839 -2.29614,-0.97507 0,0 z m 182.89822,-0.74877 c 2.34212,-0.8826 -1.68682,-1.44479 0,0 z m -181.37423,-1.39539 c 1.72282,-1.19221 -1.6676,-1.78813 0,0 z m 19.93281,-0.2422 c -2.34402,-9.18906 -5.46248,-5.04976 0,0 z m -3.25614,-0.71631 c -1.51383,-5.32654 -2.1027,1.12104 0,0 z m -8.89388,-0.7612 c -0.055,-3.62966 -2.44639,-1.20801 0,0 z m 2.36717,-1.89254 c -3.50553,-12.55805 -2.05875,3.13862 0,0 z m -6.05858,-0.5221 c -2.50951,-7.89488 -2.96608,-1.84365 0,0 z m 19.07884,-0.21757 c -0.93059,-4.41283 -0.72474,2.34082 0,0 z m -37.21264,-0.41622 c -0.8387,-5.43581 -1.92166,-0.0153 0,0 z m 28.46153,0.11679 c 1.72282,-1.19221 -1.6676,-1.78813 0,0 z m -19.69885,-0.46514 c -1.2372,-8.26788 -4.96626,-8.09373 0,0 z m 11.2538,-0.70538 c -0.32229,-4.14702 -1.72618,1.62947 0,0 z m -8.76444,-0.69069 c -0.27081,-8.24421 -5.52724,-8.19155 0,0 z m 19.41751,-0.19177 c 0.0593,-3.0035 -1.69618,-1.18867 0,0 z m -25.93281,-0.73782 c 0.92737,-6.52692 -2.6406,-1.22542 0,0 z m 7.91405,-2.6548 c 1.55543,-8.49313 -4.5428,-1.67828 0,0 z m 2.76772,0.32914 c 4.0604,-3.60378 -1.47849,-10.73933 0,0 z m 5.69429,-0.46514 c 1.90179,-8.5916 -5.99138,-10.73359 0,0 z m 17.5381,-3.25593 c 0.79828,-2.45949 -1.43262,-2.45436 0,0 z m 8.34229,-9.7794 c -0.23584,-3.16801 -1.78804,0.69625 0,0 z m 118.12838,-3.24432 c 4.68976,-2.33847 -1.0694,-1.67352 0,0 z m -1.7494,-48.37377 c 7.75494,-2.74759 13.09611,-7.20426 13.18691,-6.3363 2.38924,0.0193 5.56165,-3.17931 7.10565,4.16973 2.92722,-12.14506 15.8105,3.89686 14.81992,-7.20809 7.88906,-6.35781 17.14693,0.0991 16.10879,-13.23888 -4.37587,-0.69832 6.74648,-13.72651 5.9677,-7.38518 4.9076,-7.89573 20.20742,-11.40857 16.32773,-23.7898 -4.61277,-18.6422 13.1736,-30.94538 5.99265,-7.88943 0.10639,12.73149 5.25574,21.47131 12.23786,4.72451 4.55623,-12.29953 5.27767,-27.11818 4.69812,-40.40884 0.51245,-12.43369 5.77422,-26.38102 10.22139,-38.61141 0.62727,-10.29963 -11.85429,-28.38267 -17.39379,-13.56598 -11.35007,8.04655 -8.97506,7.81715 -11.69474,-3.02336 -4.44614,-5.12248 -23.21695,10.5554 -24.69174,-7.81978 -23.09241,16.57192 -1.21322,-8.95345 14.09774,-5.20393 13.17924,9.88186 30.339,-6.10838 7.99608,-9.53083 -20.17181,-2.2316 -47.53954,12.1935 -43.50306,32.54479 -12.56321,-23.52324 9.12567,-48.35076 34.06437,-40.40817 10.72181,0.70257 26.79372,4.68952 32.19997,-0.83474 5.05897,7.25864 -1.94542,-12.44878 -1.58019,-10.14403 3.01043,-12.31662 -7.85085,-28.87889 -2.25383,-37.69702 -1.73786,-14.40214 -3.94803,-4.96676 -7.63228,-4.01601 -7.18055,-17.38828 -2.20876,-17.70574 -7.53152,-29.529937 -2.67719,-7.681788 -11.59465,-12.848037 -18.76346,-10.780861 1.02145,-8.451058 -10.74936,-8.212878 -5.10233,-3.806748 -11.66915,-1.093607 -14.21463,-1.521068 -23.58088,-4.01729 -0.805,-9.757463 -10.60363,-8.093959 -14.19283,-7.71371 -2.07595,0.300503 -12.91159,-5.336808 -22.27173,2.460058 -12.46164,-0.690671 -27.50838,6.18099 -39.04182,15.13808 -9.55735,8.728115 -24.37529,23.061128 -24.04316,39.493618 1.68796,15.21491 -9.91319,22.81809 -10.65946,36.84904 2.70895,10.88385 -1.69328,20.45148 -1.11259,32.36592 -7.50092,23.6083 4.56144,44.38529 9.16994,66.96049 3.86861,20.63992 3.23482,45.59605 20.76345,59.28763 4.59287,-2.91772 15.04996,7.21254 14.78145,14.2099 -4.72639,-1.86542 6.20356,12.04262 12.11827,14.40778 6.07095,-1.84865 21.16416,9.4365 21.0357,7.55851 -0.61836,1.87978 1.88979,1.26764 2.15572,2.79027 z m 19.34033,-35.3572 c -6.79167,-1.80612 -30.89693,-5.14514 -10.14781,-8.19809 12.15245,-3.19476 42.02335,-0.53504 15.73829,7.27499 -2.65535,-1.80396 -3.18627,0.11279 -5.59048,0.9231 z m 41.97799,-5.57445 c -2.57759,-2.28968 4.54036,-2.28624 0,0 z m -15.74143,-6.86615 c -4.69257,1.10008 3.97364,-3.64001 0,0 z m -7.90702,-2.43652 c -3.42138,-2.3971 1.66232,-3.30393 0,0 z m 22.42629,-0.0456 c -17.37408,-2.63623 -24.56553,-6.1327 -41.51307,-5.79533 -10.95587,-5.74876 -45.31004,8.33313 -42.46327,-0.45291 18.47135,-7.05803 36.76084,-6.29682 54.78928,-8.36785 10.13701,4.6205 26.0786,1.39139 29.18706,14.61609 z m 4.24553,-7.86165 c -3.73324,-10.18569 -13.68748,-2.52029 -10.4086,-9.76778 1.52225,-2.75389 14.95711,2.97053 10.4086,9.76778 z m -16.43192,-8.61938 c -7.80026,-7.20646 4.16118,-10.95605 5.55829,-5.31823 -4.74507,-4.33253 -3.01768,4.19682 -5.55829,5.31823 z m -34.63425,-6.96251 c -2.32696,-0.0862 3.17267,-6.76516 0,0 z m 25.68205,-0.69771 c -5.24576,-4.14729 0.39592,-2.77357 0,0 z m -5.99742,-1.86052 c -11.23206,-7.04294 -9.84213,-22.64892 -28.67766,-20.11732 -13.91586,-2.23066 6.0002,10.54517 -10.07213,4.81313 -11.62045,-16.21143 3.31309,-2.69281 8.35885,-15.39456 14.16825,12.18639 26.14755,-5.40717 34.64126,-4.26288 -3.91679,-11.53583 -6.52669,-34.58518 2.56606,-9.54557 8.1234,15.17129 3.6313,33.98438 -10.03017,35.61543 4.72133,4.95969 5.88664,3.69263 3.21387,8.89177 z m -18.56325,-3.72107 c -1.66761,-1.78811 1.72281,-1.19219 0,0 z m -8.61523,-2.25203 c -11.92672,-3.8766 8.09149,-1.37203 0,0 z M 257.68052,199.8488 c -8.43235,-5.57862 -13.3445,-6.21283 -21.23646,-2.21728 -9.77747,-3.50714 -1.29533,-11.86956 10.59581,-13.4108 -24.75453,11.38283 37.85079,-3.85796 27.8479,10.69804 -12.00883,-11.20155 -5.59808,6.87463 -17.20725,4.93004 z m -0.40534,-8.18599 c 7.19559,-3.72596 -6.52889,-4.10959 0,0 z m 70.56079,1.39539 c 0.33113,-11.31651 26.50557,-7.30442 5.87751,-4.45456 l -3.78658,2.84862 z m -49.53021,-2.65343 c -5.54072,-3.36414 -23.60871,-13.42082 -4.39549,-5.06461 1.45706,1.44594 4.52437,2.50634 4.39549,5.06461 z m -55.85904,-3.45929 c -14.82355,-7.25204 15.26147,-7.76222 -0.19506,-1.41645 l 0.77648,1.17023 z m 64.68086,-2.2894 c -7.95695,-7.06311 -53.6997,-14.06619 -29.60227,-20.28133 10.09189,2.03844 32.38725,6.88627 29.60227,20.28133 z m -60.27846,-6.48694 c -10.36574,-13.37955 19.06548,-5.60996 3.07955,-1.71974 l -1.29548,0.75046 z m 82.2783,0.004 c -2.72666,-2.08335 2.25568,-6.75308 0,0 z m -66.4972,-6.53006 c -20.53156,-1.53971 8.5958,-8.70581 0,0 z M 378.39211,157.9311 c -3.7728,0.22763 3.34526,-8.81712 0,0 z m -170.21897,-5.3397 c -0.78443,-4.47877 1.48461,-5.30594 0,0 z m 165.65094,-26.51255 c -4.11046,-2.09929 1.14675,-3.68701 0,0 z m -39.3967,-48.838911 c -8.99464,-2.256615 4.14179,-3.972401 0,0 z m -21.79204,-8.837517 c -3.78423,-6.352987 5.32332,-2.618541 0,0 z m -2.85998,-2.519251 c -5.29193,-0.394856 3.01437,-3.582731 0,0 z M 275.19564,351.85578 c 0.32557,-2.36715 -2.41938,-0.23212 0,0 z m 51.54819,-3.90872 c 3.01979,-3.95475 -3.18096,-5.04539 0,0 z m 4.33956,-3.38161 c 0.1742,-3.81633 -0.31811,-0.15391 0,0 z m 11.75533,-11.50263 c 8.55718,-4.59775 -3.73372,-3.59225 0,0 z M 353.842,317.71344 c 2.51243,-2.94473 -4.43404,-0.84444 0,0 z m 52.50604,-42.84165 c 10.71358,-2.69663 21.57362,-41.78285 7.11054,-16.52274 -2.38638,4.28986 -15.60481,12.82635 -7.11054,16.52274 z m -205.21906,-1.58025 c 20.01246,-5.50535 -5.43853,-24.06934 1.45905,-35.11575 0.77199,-13.15507 -15.01632,-16.92773 -8.2366,-25.85156 16.40129,-2.03321 -17.94023,-40.87302 -14.0053,-17.99122 6.85805,7.06905 18.77437,17.15289 3.8301,12.7208 -18.26567,-13.03985 -6.12561,30.44226 -3.24237,41.81992 4.54148,8.56094 7.40414,25.47426 20.19512,24.41781 z m -20.58294,-37.44141 c -2.27538,-2.93803 1.22186,-4.57053 0,0 z m 226.29727,21.06433 c 9.65147,-6.47936 -4.18997,-6.62406 0,0 z m 9.66481,-6.64523 c 15.10196,-8.88454 -1.82873,-53.92412 -2.35824,-20.23326 0.29253,6.10265 -6.07777,17.6621 2.35824,20.23326 z m -7.42699,-13.02371 c 1.33715,-2.54295 -1.77753,-3.22956 0,0 z m 15.75088,-10.89128 c 3.9914,-11.41175 -2.08227,-22.75004 -1.21721,-3.43124 l 0.30294,2.37336 z m -13.56389,-18.8772 c 13.39006,-1.73974 17.66612,-26.60141 2.55117,-11.17257 -1.68902,1.3296 -7.04961,10.86451 -2.55117,11.17257 z m -64.22236,-13.02371 c 6.69724,-3.97217 -6.33839,-3.62403 0,0 z m -160.22609,-8.00872 c 2.13395,-1.78772 -1.78161,-1.60199 0,0 z m 0.14604,-18.76354 c 6.86024,-9.04964 -5.76226,-4.06169 0,0 z m 183.54078,-63.92858 c 2.26312,-1.68266 -3.78817,-4.186265 0,0 z m -3.61463,-9.254367 c 1.05812,-2.35553 -2.51354,0.457644 0,0 z m -28.43982,-25.67345 c -0.0101,-7.819903 -2.44584,4.869273 0,0 z m -13.83099,0.973146 c 4.15499,-10.991559 -1.38554,-4.459653 0,0 z m 10.3868,-1.968886 c 2.74884,-7.107346 -7.07128,1.786352 0,0 z m -13.64014,-0.174771 c 6.36021,-4.065413 -4.1664,-0.07322 0,0 z m 7.94321,-2.042536 c 2.45078,-1.153213 -2.45076,-1.153213 0,0 z"
         id="path11"
         sodipodi:nodetypes="ccccccccccccccccccccccccccccccccccccccccccccccccccccccccccccccccccccccccccccccccccccccccccccccccccccccccccccccccccccccccccccccccccccccccccccccccccccccccccccccccccccccccccccccccccccccccccccccccccccccccccccccccccccccccccccccccccccccccccccccccccccccccccccccccccccccccccccccccccccccccccccccccccccccccccccccccccccccccccccccccccccccccccccccccccccccccccccccccccccccccccccccccccccccccccccccccccccccccccccccccccccccccccccccccccccccccccccccccccc" />
    </clipPath>
    <clipPath
       clipPathUnits="userSpaceOnUse"
       id="clipPath14">
      <ellipse
         style="display:inline;fill:#383838;fill-opacity:1;stroke-width:0.315381"
         id="ellipse15"
         clip-path="url(#clipPath10)"
         ry="299.89835"
         rx="299.86209"
         cy="300.02444"
         cx="300.03503" />
    </clipPath>
    <clipPath
       clipPathUnits="userSpaceOnUse"
       id="clipPath19">
      <rect
         style="display:none;fill:#383838;fill-opacity:1;stroke-width:0.263725"
         id="rect19"
         width="372.21246"
         height="593.94098"
         x="114.8082"
         y="1.7824572"
         d="M 114.8082,1.7824572 H 487.02066 V 595.72344 H 114.8082 Z" />
      <path
         id="lpe_path-effect19"
         style="display:inline;fill:#383838;fill-opacity:1;stroke-width:0.263725"
         class="powerclip"
         d="M -2.9206848,1.2380066 H 603.84238 V 601.76309 H -2.9206848 Z M 114.8082,1.7824572 V 595.72344 H 487.02066 V 1.7824572 Z" />
    </clipPath>
  </defs>
  <g
     inkscape:label="Hintergrund"
     inkscape:groupmode="layer"
     id="layer1"
     style="display:inline"
     transform="translate(-2.0793157,-6.2380066)">
    <g
       id="g4"
       transform="matrix(1.4535391,0,0,1.4535391,105.81475,4.6792669)"
       style="display:inline">
      <path
         style="display:inline;fill:#727272"
         d="M 46.917542,383.5795 C 20.409058,368.27482 5.8256338,360.92612 3.2964332,336.00909 -1.8710789,274.97364 -38.147305,230.81146 -38.57853,169.62724 c 0,-46.27189 16.769741,-91.467928 43.4324582,-115.475482 C 22.901553,37.39737 48.038006,22.900624 69.832391,16.589339 109.26218,4.3846885 146.95196,2.3342339 187.67234,12.789861 c 25.01542,6.972659 42.96482,15.757525 61.93227,34.724977 24.33978,21.787859 21.4981,51.638525 23.03565,86.042872 0.0886,64.09753 1.70964,128.29296 -2.019,192.31427 -2.56508,25.40943 -16.22964,35.88551 -39.92421,51.03754 -27.57845,14.59652 -37.82354,14.61443 -69.98904,20.79281 -11.81752,1.81755 -26.68877,3.55246 -31.81448,3.55256 -28.76485,-0.0829 -55.105949,-8.23695 -81.975988,-17.67539 z M 139.04,339.9245 c 12.24243,2.00265 22.7345,-6.4272 31.60907,-4.54083 14.34556,-2.48709 25.91529,-12.59461 35.11092,-23.04807 -3.80204,-1.59433 -6.63348,2.52933 -7.94287,0.22919 -8.60381,3.37101 -12.7248,4.74053 -22.02878,5.00658 -1.65554,-9.23642 -11.55498,-0.14884 -11.09561,3.76248 -4.13245,3.54169 -11.08491,6.38785 -10.33165,-3.16552 -2.8594,-6.50826 -5.57184,-4.35528 -12.10468,-4.02809 -12.29481,0.86293 -11.12546,10.34787 -7.25723,19.09457 -3.85846,-0.66735 -6.17983,-5.12833 -10.35865,-11.6987 0.74093,-9.60756 -8.88813,-16.74525 -8.01213,-2.96563 -9.67783,-0.26257 -10.69965,-6.61652 -15.77812,-13.83135 -2.743185,-6.48472 -7.110567,-7.53524 -8.17694,1.61558 -1.409676,-1.3429 -1.349941,-11.26216 -4.868325,-4.51801 1.328529,5.01838 -5.818466,11.44927 -8.180179,15.67615 -1.740332,2.04401 15.105178,13.05924 22.917204,15.13512 9.47268,7.86702 24.47477,6.87188 36.49797,7.27653 z m 23.24943,-4.95416 c -1.28572,-1.31654 1.76993,-1.61366 0,0 z m 6.93361,-1.27569 c -7.68393,-2.61446 4.75343,-6.01588 0,0 z M 169.11999,332.16 c 1.48635,-0.86744 -1.48634,-0.86749 0,0 z M 121.04,333.40071 c -4.10809,-1.356 0.30266,-1.92248 0,0 z m 53.24633,-5.89157 c -2.87129,0.58954 -1.82924,-6.55634 0,0 z M 97.323287,328 c -2.028054,-0.45309 0.631324,-1.95895 0,0 z m 2.67671,0 c -1.727919,-0.76087 1.693603,-1.12168 0,0 z m -5.214151,-0.64 c -2.302573,-0.84711 0.475361,-1.45675 0,0 z m 81.534144,0 c -1.18525,-0.8202 1.14727,-1.23018 0,0 z m -67.4619,-0.96 c -3.92907,1.18495 -18.438368,-9.43028 -8.5182,-5.53565 7.93871,3.33029 9.87507,-3.41317 8.5182,5.53565 z m -11.239468,-0.72589 c -6.69577,-0.20019 2.304797,-4.50522 0,0 z m 71.517998,-0.92354 c -1.7014,-1.11327 2.33577,-0.98064 0,0 z m 4.2963,-1.28154 c -0.49382,-3.62317 3.43075,-3.52383 0,0 z M 171.51999,323.2 c -1.14727,-1.23018 1.18525,-0.8202 0,0 z m -79.021107,-0.96 c -2.585703,-1.46166 1.68265,-0.90438 0,0 z m 10.122227,-1.63375 c -4.308254,-2.03952 1.75336,-2.47136 0,0 z M 171.34072,320.32 c -0.0853,-1.30187 1.86262,-2.84829 0.69382,-0.56 z m 6.17927,-0.0234 c 0.33511,-2.44958 4.18757,-1.60329 0,0 z m -8.06874,-1.2566 c -2.8608,-1.60543 1.41358,-1.20299 0,0 z m -64.2537,-0.32 c -1.78643,-3.14668 4.77468,-1.04782 0,0 z m -13.798371,-0.96 c -1.730822,-0.87416 0.462133,-1.41192 0,0 z m 56.459701,-1.28 c -5.06263,-1.33013 -0.25066,-3.27666 0,0 z M 99.538882,307.2 c -2.358537,-0.96941 1.720368,-1.92837 0,0 z m 31.060298,18.88 c 1.77333,-1.57523 -3.12366,-1.57286 0,0 z m -19.83455,-9.46758 c 1.36048,-2.22198 -2.26415,0.29067 0,0 z m -39.464915,-7.92359 c 3.407887,-6.72903 2.560602,-7.03611 2.371863,-14.28883 3.578274,-4.89122 -8.073711,2.82569 -5.556458,-7.47056 1.43225,-11.19687 -3.255125,-8.95415 -9.153712,-9.43711 -10.275645,0.59872 -4.657965,16.86434 -1.445048,21.34336 3.520759,1.95727 7.92638,-0.47318 10.039541,4.58482 -1.174045,1.91117 2.694694,6.87795 3.743814,5.26832 z m -4.810751,-10.79462 c -7.752593,-4.90093 0.32774,-7.30997 -0.04025,-1.17422 l 0.04025,1.17421 z m 1.11729,-5.73421 c -3.295822,-1.16905 1.302211,-2.79016 0,0 z m -1.606256,-1.92 c -3.798783,-1.48466 2.895257,-3.46446 0,0 z m 142.920262,19.45245 c 2.35018,-2.25508 -2.4754,-1.09811 0,0 z M 76.639998,309.44 c 1.675126,-2.48149 -1.847086,-3.11137 0,0 z m 41.813332,-0.32 c 0.98059,-1.52631 -1.8911,-0.58114 0,0 z m 93.48524,-1.87918 c 3.41759,-6.87857 -2.68168,-0.99476 0,0 z M 74.719998,307.2 c 1.515736,-3.12095 -4.527165,-1.94644 0,0 z m 132.637732,-0.1586 c 1.9176,-3.51541 -2.3306,-0.25792 0,0 z M 60.685762,302.7151 c 3.858642,-2.77642 -4.243574,-0.30609 0,0 z m 32.451962,-2.69224 c 2.035004,-1.17367 -1.498801,-0.45665 0,0 z M 74.614416,297.28 c 1.607529,-1.18759 -0.666685,-2.29319 0,0 z M 219.19999,285.6 c 1.14727,-1.23018 -1.18525,-0.8202 0,0 z m 3.08315,-0.21217 c 2.31192,-2.26763 -1.3691,-1.77138 0,0 z M 69.138883,278.4 c 2.317382,-1.54161 -2.600294,-1.0533 0,0 z m 56.738997,-45.50313 c 3.00221,-2.44313 -2.62461,-1.03991 0,0 z M 140.30753,231.36 c 6.08145,-2.16946 -5.71531,-2.22321 0,0 z m -19.52349,-1.6 c 3.96348,-4.5802 12.47442,0.8786 17.01034,-1.63835 -2.9835,-8.58059 -4.28273,3.4657 -7.23437,-2.50314 8.46919,-7.92602 -14.69168,-4.17707 -11.66626,-4.37275 -1.49489,-0.42453 -3.75588,8.28036 1.89029,8.51424 z m 15.68707,-2.25017 c -2.83588,-1.20602 -0.69264,-1.95035 0,0 z M 127.04,224.8 c -1.18525,-0.8202 1.14727,-1.23018 0,0 z m -4.24168,-2.46446 c -4.14964,1.88858 1.89357,-2.19719 0,0 z m 20.06279,5.50446 c 1.61133,-0.6072 -1.1605,-0.99398 0,0 z m 3.59414,-2.78548 c 2.25044,-1.68708 -1.7274,-2.75482 0,0 z M 132.46995,224.64 c 1.90672,-1.56794 -2.6469,-1.93877 0,0 z m -24.22309,-10.893 c 5.82632,-1.37641 5.33663,-7.97257 0.71734,-2.22351 2.93097,-13.71263 -6.10049,1.59009 -0.71734,2.22351 z m 8.89441,-1.44015 c -0.64247,-6.76027 -6.01202,-1.68793 0,0 z M 110.96536,208.32 c 3.66608,-1.1022 -0.4461,-4.21915 0,0 z m 21.45352,-0.96211 c 6.78361,-3.45807 -15.64035,-1.6014 0,0 z M 88.338883,200.64 c -0.564643,-1.93395 0.154226,-0.23233 0,0 z m 7.357288,-2.56 c 6.839079,0.87666 6.722149,-14.66074 17.340139,-11.61883 13.13585,-0.54729 4.58455,-8.82302 2.68937,-17.1812 -0.12302,-12.2182 9.29341,-23.2115 7.74218,-34.12816 0.59597,-9.65319 -11.52478,3.6895 -5.50867,2.28028 -3.11631,4.74687 -12.46235,4.70557 -9.2289,2.41323 -10.023814,2.12919 -18.084129,8.04657 -21.577485,-2.09232 -7.297772,-6.06773 -11.410532,5.76139 -5.912456,4.8552 -3.504581,10.86715 3.120152,1.99639 -1.005116,14.5554 0.662095,3.70389 3.467545,6.85309 2.925643,8.96698 0.853845,6.28369 5.719586,10.03373 4.242955,15.20297 2.713976,3.65308 5.616855,16.11061 10.192542,7.2192 0.97828,3.1138 -3.972329,6.51941 -1.900202,9.52725 z m -1.936174,-6.4 c -1.707063,-0.96839 1.707063,-0.96839 0,0 z m -5.138885,-9.92 c -1.160509,-0.99395 1.611328,-0.60723 0,0 z m 4.338885,14.4 c 1.692572,-0.70435 -1.731124,-1.56165 0,0 z m -4.818885,-0.96 c 2.499319,-4.38421 -3.699214,-11.81163 0,0 z m 32.641538,0 c 5.02125,-1.15025 29.20153,-1.4935 16.99921,-5.21122 -4.06322,1.89307 -11.69282,-0.64222 -18.19557,1.1312 -1.25383,1.80491 -2.16452,2.58119 1.19636,4.08002 z m -29.582653,-0.32 c 1.179119,-1.67771 -1.179119,-1.67771 0,0 z m 52.666173,-2.68576 c 5.66638,0.98592 -3.65051,-2.14343 0,0 z M 167.98553,191.36 c 1.95137,-6.43099 1.00303,-15.37162 1.40144,-22.54937 -0.7916,-7.26405 3.78167,-4.95225 1.49775,0.31089 3.25859,-0.99801 3.70302,-6.58922 7.25062,-8.1154 5.48628,-5.20243 3.41212,-9.69513 -2.45563,-5.65371 0.23929,-2.08958 -7.5454,-3.33698 -3.11996,-6.74697 6.60649,1.16099 -11.27237,-5.12051 -15.1217,-8.22638 -8.2824,0.41657 -1.07541,-6.89269 3.67753,-2.069 -5.56076,-8.1059 -15.49145,0.97021 -7.55082,8.5699 4.38718,11.85426 -0.086,25.68062 7.53674,36.32 2.47948,2.4483 4.12347,6.25968 6.88403,8.16004 z m 4.52891,-28.16 c -2.4307,-1.73913 1.70695,-2.16514 0,0 z m 0.62841,-2.56 c -0.53355,-5.00954 5.50984,-0.65691 0,0 z m -13.99939,-1.60973 c -2.86461,-0.5422 0.34414,-2.22102 0,0 z M 178.63293,158.08 c -1.92325,-2.89623 1.89182,-5.07685 0,0 z M 124.96,189.44 c 2.22441,-0.77246 -2.22441,-0.77246 0,0 z m -13.84777,-0.58423 c 0.67469,-1.91194 -1.73453,0.29898 0,0 z M 86.77391,188.48 c 4.52569,-0.70291 -5.427043,-9.43832 0,0 z m 43.09649,-0.32 c 2.38056,-1.98415 -1.57858,-0.49347 0,0 z m 8.92115,-1.28 c 1.70722,-3.03037 -2.54833,-1.75796 0,0 z m -8.13602,-0.54606 c -3.41196,-2.07045 0.4166,0.14298 0,0 z M 61.268739,180.16 c 3.527969,-1.77491 -2.453973,-3.01137 0,0 z m 0.731259,-3.53017 c 1.211476,-2.28402 -3.500136,-1.42565 0,0 z m 2.200818,-5.13011 c 4.402498,-4.41063 -10.158538,-4.0582 3e-6,0 z M 135.52,166.05988 c 9.65304,-4.88531 0.37098,-17.07044 5.06145,-24.31849 0.96273,-7.87035 -7.36508,-30.49584 0.22808,-29.82536 0.81835,8.57764 15.24063,-1.43543 15.7603,-5.51603 1.02895,-11.083827 8.1607,13.98578 7.43842,-2.38798 0.88965,-5.193059 -6.07593,-13.475455 2.32025,-17.932019 5.97594,-11.461924 -9.11945,-14.446319 -14.00842,-19.375901 -0.87699,1.074827 -8.65924,-5.718751 -4.12629,-7.674801 -7.17999,-1.140488 -14.24429,-1.284759 -20.90299,-0.437302 -4.50092,1.991441 -10.81924,1.307157 -12.09069,6.476781 -5.15055,-2.766553 -13.37431,6.173139 -18.686607,9.028708 -3.0773,2.079645 5.896787,1.088496 1.72661,4.691099 -4.262866,-3.294819 -14.422441,8.606478 -7.478586,15.324362 0.163389,3.334057 -4.196225,18.335823 2.306112,10.428643 9.616211,0.17626 20.757151,5.52545 29.186241,7.46623 4.75749,4.64211 7.466,1.69953 9.09377,-0.9917 3.87529,11.74629 -5.58691,23.57732 -2.71534,34.08059 4.25433,7.05649 -8.14448,20.40711 6.88769,20.96317 z m 24.79999,-68.139879 c -1.14727,-1.230164 1.18525,-0.820208 0,0 z m -0.35423,-8.64 c -1.59038,-1.480991 2.24028,-1.600642 0,0 z M 56.199181,163.52 c -0.761988,-4.58396 1.527583,-23.97082 -3.268098,-9.80656 0.332377,3.23116 0.205833,7.81887 3.268098,9.80656 z m 6.397222,-1.92 c 4.223038,-10.05365 -7.193624,-5.31819 0,0 z M 124.48,160.32 c 1.18525,-0.8202 -1.14727,-1.23018 0,0 z m -0.64,-2.56 c 1.70706,-0.9684 -1.70707,-0.96838 0,0 z m 1.68,-1.29017 c 4.03459,-5.5895 -3.34845,-2.47325 0,1e-5 z M 183.19999,152.64 c 1.68607,-0.79338 -1.68607,-0.79338 0,0 z M 48.673158,149.21484 c 0.523251,-2.60594 -1.132558,-0.0253 0,0 z M 50.871683,147.84 c 3.631042,-6.01786 -1.414694,-9.14587 0,0 z m 7.894079,-0.64955 c 2.514777,-4.87241 -8.578927,-9.96796 0,0 z m 45.171668,-6.84744 c 7.97939,-0.2586 13.5538,-8.97374 3.43841,-4.53288 -3.86917,4.44392 -1.49327,-3.84396 -5.53584,0.71677 1.71145,2.49014 -13.426063,-0.96636 -1.42474,3.35385 l 3.52217,0.46197 z m 5.48368,-4.02301 c -2.29151,-0.95584 2.73792,-0.57121 0,0 z m 57.04,4.14846 c 3.69088,-1.67829 -10.49347,-2.08631 0,0 z m -1.28,-2.5964 c 0.54644,-1.61439 -4.34542,-0.49395 0,0 z M 96.590401,136 c 3.347644,-2.24839 -0.985192,-3.24326 0,0 z m 2.769596,0 c 2.681123,-0.84859 -1.907965,-2.46593 0,0 z m 50.886093,-0.32 c 2.09818,-2.39607 -2.10671,-4.64767 0,0 z m 10.32212,-1.3234 c 2.25773,-7.7116 -10.18903,0.60289 0,0 z M 57.634235,133.76 c 1.035483,-1.73406 -1.894948,-1.28138 0,0 z M 110.96,133.11822 c 8.03818,-0.85866 -2.10915,-6.33812 0,0 z M 116.01888,132.8 c 1.16052,-0.99394 -1.61132,-0.60725 0,0 z m -11.68473,-4.48 c 2.8832,-1.86917 -2.63772,-1.45117 0,0 z m -3.12483,-3.92311 c 1.69426,-1.18368 -1.887177,-0.41981 0,0 z m 2.40956,-0.26879 c 4.78297,-0.65941 -2.75539,-1.02525 0,0 z m 63.62111,-0.0101 c 9.20514,-3.10195 -11.31291,-1.44041 0,0 z m -68.38728,-2.3891 c 8.9385,1.36043 14.16658,-4.50143 2.58958,-4.10485 -4.443458,-2.40245 -9.989869,4.92962 -2.58958,4.10485 z m 67.35531,-12.07264 c 11.14534,1.84682 -0.84224,-8.18812 0,0 z M 88.141112,107.84 c 1.611328,-0.60723 -1.160509,-0.99395 0,0 z m -0.96,-1.28 c 1.611328,-0.60723 -1.160509,-0.99395 0,0 z m 78.125548,-5.76 c 1.43816,-1.107121 -1.7095,-1.139178 0,0 z M 96.941112,77.760001 c 1.602997,-1.06137 -1.485033,-2.279197 0,0 z M 136.33176,57.369644 c 2.41372,-1.91636 -3.67343,-0.348027 0,0 z m -5.7953,-1.049643 c 4.48932,-2.559305 -3.73757,-3.302762 0,0 z m 6.57834,-0.96 c 4.78995,-4.656765 -3.63429,-2.600425 0,0 z"
         id="path6"
         sodipodi:nodetypes="ccccccccccccccccccccccccccccccccccccccccccccccccccccccccccccccccccccccccccccccccccccccccccccccccccccccccccccccccccccccccccccccccccccccccccccccccccccccccccccccccccccccccccccccccccccccccccccccccccccccccccccccccccccccccccccccccccccccccccccccccccccccccccccccccccccccccccccccccccccccccccccccccccccccccccccccccccccccccccc" />
      <g
         id="g19"
         style="display:inline"
         transform="matrix(0.687976,0,0,0.687976,-72.798007,-3.2192233)">
        <path
           style="display:inline;fill:#383838;fill-opacity:1;stroke-width:0.266917"
           id="ellipse17"
           clip-path="url(#clipPath19)"
           sodipodi:type="arc"
           sodipodi:cx="300.46085"
           sodipodi:cy="301.50055"
           sodipodi:rx="298.38153"
           sodipodi:ry="295.26254"
           d="M 598.84238,301.50055 A 298.38153,295.26254 0 0 1 300.46085,596.76309 298.38153,295.26254 0 0 1 2.0793152,301.50055 298.38153,295.26254 0 0 1 300.46085,6.2380066 298.38153,295.26254 0 0 1 598.84238,301.50055 Z"
           inkscape:path-effect="#path-effect19" />
        <ellipse
           style="display:inline;fill:#383838;fill-opacity:1;stroke-width:0.266917"
           id="ellipse13"
           cx="300.46085"
           cy="301.50055"
           rx="298.38153"
           ry="295.26254"
           clip-path="url(#clipPath14)" />
      </g>
      <path
         style="display:inline;fill:#383838"
         d="M 19.674029,369.92042 C 10.936777,355.1363 0.14702178,344.17862 0.37139558,324.60824 -0.21741088,318.05054 0.27773158,310.46402 0.39999998,304.66527 0.13456132,278.70472 0.02932874,249.15136 0.03134475,221.5536 0.77046851,168.12422 -1.8443017,114.55509 2.1325,61.2225 8.4138484,47.839258 15.993194,42.526483 37.433052,28.752955 70.735822,18.445141 99.518535,11.402422 135.91101,4.362219 c 31.1238,8.480957 49.89354,14.844986 81.28057,25.704406 26.37418,9.837694 42.86208,23.159143 52.47198,43.524293 5.27452,62.337672 2.62571,124.999082 3.27179,187.486132 -0.8014,43.77223 0.42498,74.19918 -18.82858,93.44062 -15.0542,17.02382 -14.71401,15.03892 -37.35154,28.77089 -34.36872,13.68694 -45.17541,17.36031 -80.35068,21.10928 -27.03947,-1.77706 -38.593923,-3.59779 -62.965036,-9.282 -19.013743,-10.98813 -23.631913,-6.72079 -53.765485,-25.19542 z m 68.005968,3.51959 c 1.834723,-0.42146 -1.834713,-0.4215 0,0 z m -52.49031,-12.8 c 1.203317,-1.78531 -2.072064,-1.71132 0,0 z m -8.672216,-1.7296 c 4.18032,-6.36605 -2.687266,2.22676 0,0 z m -8.137423,0.0802 c 1.734032,-0.91744 -1.46545,-0.95489 0,0 z m 20.267328,-3.80062 c -0.181342,-2.37931 -2.67601,-1.30885 0,0 z m -8.727377,-1.77937 c 2.826412,-3.22465 -2.724211,0.86683 0,0 z m -6.5,-2.76391 c 1.709501,-1.13917 -1.438159,-1.10712 0,0 z m 18.197713,-0.13638 c 0.567068,-3.49101 -2.810008,-1.84657 0,0 z m -8.657713,-0.75028 c 7.495238,-8.57425 6.394309,-13.95896 0,0 z m 28.319999,0 c 1.686075,-0.79338 -1.686075,-0.79338 0,0 z m -15.919999,-4.1625 c 1.405829,-1.73012 -2.616171,-1.82745 0,0 z m -16.916578,-2.8775 c 4.386483,-1.00971 -0.920723,-2.4085 0,0 z M 133.46464,342.2908 c 4.74784,-0.64223 8.54768,-0.51545 13.269,-1.14863 3.23634,0.007 9.46237,-1.29172 11.98634,-1.42246 8.36982,-1.80859 14.43931,-2.53362 22.26241,-5.35671 11.06721,-4.07797 17.73666,-14.17218 27.12162,-21.25848 11.0816,-10.19959 24.20445,-23.57167 19.44224,-40.14525 -1.98759,-12.3094 -14.82721,-13.62372 -23.30325,-11.52 -1.58135,6.59787 -8.58965,-2.3728 -6.19459,9.28979 -1.92243,8.61901 -6.06245,11.93734 -12.17682,19.41556 -3.75913,6.75413 -5.1491,12.75791 -7.25288,9.13516 -6.4294,-4.93129 -13.78005,12.66034 -18.98676,7.99515 0.98372,-7.1466 5.8258,-16.31807 3.45782,-15.43935 1.45486,-7.49142 1.30846,-8.61994 -3.09675,-10.708 -3.27248,-0.39712 -9.18142,15.53775 -17.56898,11.18836 -6.52497,2.96219 -1.33924,-8.13434 -6.5841,-2.07669 -2.75528,3.7237 -12.87028,-4.59277 -1.44003,-1.88081 -1.83122,-0.90822 20.16335,-2.95955 5.2867,-5.36592 -5.10626,-2.2134 -10.85527,-8.6206 -20.65278,-6.83338 -2.49122,-6.05011 -8.07081,-17.26144 -16.16421,-24.64 -4.881774,-8.35666 -9.833474,-17.7398 -15.829693,-26.25004 -4.084475,2.2342 -0.230079,19.51888 -1.465791,28.41004 2.659545,7.07252 -4.495682,33.69261 -3.208379,13.09068 1.353949,-9.67834 -1.51207,-18.9983 -10.512007,-7.90834 -16.728736,-1.26654 -25.707384,11.44803 -39.674299,16.95608 -13.023246,-0.77532 2.501997,23.08621 -4.65953,5.67903 3.617316,0.17117 0.445134,-4.46952 4.39562,2.5336 -1.125247,-5.96557 3.783241,5.15099 0.865892,-5.55922 3.262208,8.08567 1.074598,-1.4328 3.672434,1.89061 -1.399785,-3.62535 6.471211,-1.14959 6.46833,-6.76253 8.840579,-7.81132 -0.371906,17.89568 6.667748,22.56 5.444229,10.50442 17.323895,14.33199 24.469439,22.96281 11.58622,8.15213 23.734857,16.28277 37.182676,20.86662 4.88585,1.58849 18.67358,1.0885 21.64201,2.65043 l 0.58053,-0.34908 z M 155.95488,305.6 c -2.32378,-2.06757 3.38469,-1.59811 0,0 z m 20.36511,-5.12 c -1.18525,-0.8202 1.14727,-1.23018 0,0 z M 52.531363,293.76 c -2.235162,-1.97501 0.75926,-2.25475 0,0 z m 90.009747,-0.32 c -1.72986,-0.98932 2.17187,-0.5686 0,0 z m -90.321481,-2.77396 c -5.673247,-6.89971 -1.806379,-19.18048 -1.471408,-24.20719 3.125132,-5.32262 30.113338,-8.91775 11.811777,-2.04345 -8.637275,-0.006 -12.843213,7.78235 -11.260712,13.59912 -0.724446,4.12325 1.749522,8.65961 0.920343,12.65152 z M 159.6,291.13909 c -2.22453,-1.7315 1.82434,-3.06091 0,0 z m 30.28115,-2.56222 c -2.13763,-0.77831 2.28622,-2.18129 0,0 z m -50.5377,-2.96773 c -11.5859,0.64732 8.55684,-2.92531 0,0 z M 135.49004,285.12 c -1.55516,-1.63672 1.13119,-1.71493 0,0 z m -9.67017,-4.16 c -6.11183,-3.80787 1.25639,-2.4071 0,0 z m -94.453532,-0.80391 c -1.40689,-1.12223 0.50536,-2.24157 0,0 z M 132.23836,280.32 c -5.68073,-2.39336 3.46987,0.1197 0,0 z M 127.70481,280 c -3.69446,-1.69036 3.25512,-1.81445 0,0 z m -87.974066,-3.07136 c -2.497078,0.0874 0.673812,-2.62269 0,0 z M 199.39423,271.04 c -1.89495,-1.28137 1.03547,-1.73406 0,0 z M 81.019997,269.68667 c -1.43816,-1.10712 1.709501,-1.13919 0,0 z m 6.02,72.39334 c 1.834723,-0.42146 -1.834713,-0.4215 0,0 z m 9.415992,-1.608 c 0.588737,-1.86689 -2.475242,0.8227 0,0 z m -47.575991,0.006 c 2.686467,-1.84978 -4.80569,-2.41756 0,0 z m 49.112542,-0.63797 c 3.37779,-1.02331 -2.295777,-0.60237 0,0 z M 39.675019,338.6269 c 5.751484,-6.40729 -2.180127,-1.59268 0,0 z m 57.764978,-0.38689 c 2.224411,-0.77246 -2.224411,-0.77246 0,0 z m -45.525508,-3.1465 c 0.194567,-2.29453 -1.467657,0.48221 0,0 z M 33.563506,335.04 c 5.54375,-0.50914 -3.008365,-2.68837 0,0 z m 8.756493,-0.82978 c 5.14948,-3.27723 -2.001297,-0.57975 0,0 z m 47.679998,-1.14796 c 2.515227,-1.03483 -2.515227,-1.03483 0,0 z M 45.919999,332.48 c 1.486348,-0.86747 -1.48635,-0.86747 0,0 z m 41.778435,-0.64 c -0.675435,-3.51821 -9.548289,-6.45809 0,0 z m -32.791769,-1.6 c 1.438159,-1.10712 -1.709501,-1.13917 0,0 z m -8.804982,-0.88 c 5.464314,-4.00508 8.056206,-6.2187 8.872866,-10.29788 4.881754,-8.79214 1.469888,-7.47141 -3.377407,3.3457 -0.87033,2.09823 -7.105717,4.54276 -5.495459,6.95218 z m 34.509177,-1.32381 c 6.143801,-0.15217 -3.551073,-4.54732 0,0 z M 39.182145,327.68 c 4.247436,-0.61189 -0.523834,-2.64467 0,0 z m 18.905586,-0.32641 c 1.366883,-1.516 -1.735579,0.36512 0,0 z M 78.418883,325.44 c 2.237073,-1.68823 -2.907749,-0.94705 0,0 z m -17.218885,-0.99375 c 1.836858,-1.72129 -4.81647,-1.83524 0,0 z m 15.713442,-0.59169 c -2.666877,-4.29325 -4.632843,-0.58788 0,0 z M 73.341159,321.6 c -1.428799,-1.96912 -0.740765,-1.0441 0,0 z m -9.600258,-0.32 c 0.810114,-1.19118 -1.575281,-1.11193 0,0 z m -19.260902,-0.33497 c 7.564012,-1.51738 -7.087081,-3.40226 0,0 z M 71.039998,320.32 c 1.707066,-0.96839 -1.707067,-0.96838 0,0 z m -4.891331,-2.82631 c 1.864686,-0.84865 -3.752665,-0.63313 0,0 z m -16.708669,-3.75392 c 4.26993,-1.7435 -7.433787,-2.38772 0,0 z M 51.501113,309.76 c 1.611328,-0.60723 -1.160509,-0.99395 0,0 z m -1.88327,-1.28 c 0.02353,-2.27939 -3.730037,-1.62863 0,0 z m 1.831108,-0.46925 c 3.820151,-3.22447 -6.416042,-12.31333 -6.488952,-18.29503 -1.997765,-3.81711 -2.81283,2.4931 -6.24,1.00428 -2.935532,0.69872 13.232972,17.73943 2.012359,6.68098 4.08305,7.00302 1.759488,4.78174 10.716593,10.60977 z m -2.568953,-3.07601 c -3.784927,-0.99333 1.381774,-1.56705 0,0 z m -3.199999,-4.78491 c -8.899002,-8.65386 -4.71996,-9.8861 0,0 z m 0.944,-1.26983 c -3.557726,-1.7875 1.508131,-2.04717 0,0 z m -2.064,-2.89064 c -4.753542,-3.67287 -2.056722,-6.70219 0,0 z m 1.465425,-0.63947 c -4.733171,-2.98135 -1.426726,-6.58947 0,0 z M 46.869955,306.24 c 1.132754,-1.33854 -1.583085,-1.14818 0,0 z m -9.365956,-0.64 c 0.480374,-1.44391 -2.292537,-0.95458 0,0 z m -5.266356,-1.09097 c 0.0858,-1.40844 -1.701385,-0.80326 0,0 z m 5.183308,-1.68045 c -1.223575,-3.02426 -1.332415,0.63383 0,0 z m 3.939048,0.20719 c 0.278274,-1.89397 -2.545109,-1.56397 0,0 z M 41.639181,301.12 c 0.798398,-1.53482 -2.331669,-1.14353 0,0 z m -2.23003,-0.32 c -2.681124,-5.52919 -6.849194,-7.03551 -1.063327,-0.88 z m -4.747728,-0.9777 c -2.360715,-4.19361 -3.526316,-3.03192 0,0 z M 31.371258,298.56 c 1.322811,-1.39778 -2.540076,-1.24114 0,0 z m 6.975238,-1.75983 c -0.862317,-2.30819 0.472682,-5.88921 -3.182497,-7.74817 4.795334,5.79168 -3.371729,2.26751 3.182497,7.74817 z m -7.374577,-2.03593 c 0.180351,-1.6225 -1.339821,0.14784 0,0 z m -2.248049,-0.61585 c -0.15581,-2.05594 -1.579694,-0.67083 0,0 z m -8.652344,-1.47325 c -0.155807,-2.05594 -1.57969,-0.67082 0,0 z M 145.90111,292.16 c 1.61133,-0.6072 -1.1605,-0.99398 0,0 z M 21.119999,291.2 c 1.185254,-0.8202 -1.147273,-1.23018 0,0 z m 13.713295,-0.16662 c -1.612629,-6.32186 -3.758056,-3.47411 0,0 z m -2.240152,-0.4928 c -1.041478,-3.66454 -1.446607,0.77125 0,0 z m -6.118772,-0.52369 c -0.03785,-2.49712 -1.683062,-0.83108 0,0 z m 1.628558,-1.30202 c -2.411722,-8.63964 -1.416374,2.15929 0,0 z m -4.168157,-0.35918 c -1.726487,-5.43149 -2.040597,-1.26839 0,0 z m 13.125783,-0.14968 c -0.640225,-3.03592 -0.498605,1.61043 0,0 z m -25.601409,-0.28634 c -0.576999,-3.73971 -1.322054,-0.0106 0,0 z M 31.039999,288 c 1.185254,-0.8202 -1.147273,-1.23018 0,0 z m -13.552336,-0.32 c -0.851164,-5.68811 -3.416671,-5.56829 0,0 z m 7.742346,-0.48528 c -0.221734,-2.85306 -1.187574,1.12103 0,0 z m -6.029726,-0.47518 c -0.186315,-5.67181 -3.802611,-5.63559 0,0 z m 13.358781,-0.13193 c 0.04077,-2.06633 -1.166932,-0.81777 0,0 z M 14.717911,286.08 c 0.638008,-4.49036 -1.816665,-0.84305 0,0 z m 5.44468,-1.82643 c 1.070098,-5.84307 -3.125342,-1.15462 0,0 z M 22.06671,284.48 c 2.79346,-2.4793 -1.017161,-7.38839 0,0 z m 3.917537,-0.32 c 1.308386,-5.91081 -4.121923,-7.38444 0,0 z m 12.065794,-2.24 c 0.549193,-1.69207 -0.985612,-1.68853 0,0 z m 5.739291,-6.728 c -0.162251,-2.17951 -1.230127,0.47902 0,0 z m 81.269498,-2.232 c 3.22643,-1.60881 -0.73573,-1.15135 0,0 z m -1.20355,-33.28 c 5.3352,-1.89027 9.0098,-4.95636 9.07228,-4.35921 1.64373,0.0133 3.82628,-2.1873 4.88851,2.86866 2.01386,-8.3555 10.87724,2.68096 10.19576,-4.959 5.42748,-4.37401 11.79667,0.0682 11.08245,-9.10802 -3.01048,-0.48042 4.64142,-9.4435 4.10564,-5.08083 3.3763,-5.43206 13.90222,-7.84882 11.23308,-16.36682 -3.17348,-12.82537 9.06313,-21.28967 4.1228,-5.42773 0.0732,8.75896 3.61583,14.77175 8.41936,3.25035 3.13457,-8.46178 3.63091,-18.65666 3.2322,-27.80031 0.35254,-8.55408 3.97251,-18.14951 7.03206,-26.56372 0.43154,-7.0859 -8.15546,-19.5266 -11.96651,-9.33307 -7.80858,5.53583 -6.17462,5.37801 -8.04571,-2.08 -3.05882,-3.52414 -15.9727,7.26186 -16.98732,-5.37982 -15.88701,11.40108 -0.83466,-6.15976 9.69891,-3.58018 9.067,6.79848 20.87251,-4.20242 5.50111,-6.55698 -13.87772,-1.53529 -32.70605,8.38883 -29.92906,22.39003 -8.64319,-16.18342 6.27824,-33.26416 23.43547,-27.79985 7.37635,0.48335 18.43343,3.22628 22.15281,-0.57428 3.48045,4.99377 -1.3384,-8.56446 -1.08713,-6.97885 2.07109,-8.47354 -5.40121,-19.867979 -1.55059,-25.934644 -1.19561,-9.908329 -2.71615,-3.41701 -5.25081,-2.762918 -4.94005,-11.962719 -1.51958,-12.181123 -5.18152,-20.315887 -1.84183,-5.284886 -7.97684,-8.839142 -12.9088,-7.416974 0.70273,-5.814125 -7.3953,-5.650263 -3.51028,-2.618952 -8.02811,-0.752375 -9.77934,-1.046457 -16.22309,-2.763798 -0.55382,-6.712901 -7.29504,-5.56845 -9.76432,-5.306848 -1.4282,0.206738 -8.88287,-3.671595 -15.32242,1.692461 -8.5733,-0.475164 -18.9251,4.252372 -26.859833,10.414636 -6.575229,6.004733 -16.769614,15.865498 -16.541117,27.170657 1.161278,10.467495 -6.820034,15.698301 -7.333449,25.351257 1.863688,7.48783 -1.164935,14.07013 -0.765438,22.26698 -5.160453,16.24194 3.138164,30.53601 6.308695,46.06721 2.661512,14.19976 2.225479,31.36898 14.284758,40.78846 3.159782,-2.00732 10.354014,4.96206 10.169282,9.77608 -3.251641,-1.28337 4.267902,8.28503 8.337082,9.9122 4.17667,-1.27183 14.56042,6.49209 14.47206,5.20008 -0.42542,1.29324 1.30012,0.87211 1.48308,1.91963 z m 13.30568,-24.3249 c -4.6725,-1.24257 -21.25635,-3.53973 -6.98144,-5.64009 8.36058,-2.19793 28.91105,-0.3681 10.82756,5.00502 -1.82683,-1.24108 -2.19208,0.0776 -3.84612,0.63507 z m 28.87985,-3.8351 c -1.77333,-1.57523 3.12366,-1.57286 0,0 z m -10.82973,-4.72374 c -3.22838,0.75684 2.73377,-2.50424 0,0 z M 149.77125,205.12 c -2.35383,-1.64916 1.14364,-2.27303 0,0 z m 15.42874,-0.0314 c -11.95295,-1.81367 -16.90049,-4.21915 -28.55999,-3.98705 -7.53738,-3.95501 -31.17222,5.733 -29.21371,-0.31159 12.70785,-4.85575 25.29057,-4.33206 37.69371,-5.75689 6.97401,3.1788 17.94145,0.95726 20.07999,10.05553 z m 2.92082,-5.40863 c -2.56837,-7.0075 -9.41664,-1.7339 -7.16086,-6.72 1.04728,-1.8946 10.29013,2.04365 7.16086,6.72 z m -11.30476,-5.92992 c -5.3664,-4.95787 2.86279,-7.5375 3.82397,-3.65882 -3.26449,-2.98067 -2.07609,2.88731 -3.82397,3.65882 z M 132.98851,188.96 c -1.60088,-0.0593 2.18273,-4.65427 0,0 z m 17.66863,-0.48 c -3.60895,-2.85324 0.27239,-1.90815 0,0 z m -4.12607,-1.28 c -7.72739,-4.84537 -6.77114,-15.58191 -19.72954,-13.84023 -9.57379,-1.53464 4.12799,7.25483 -6.92939,3.31132 -7.99458,-11.15308 2.27933,-1.85259 5.75069,-10.59109 9.74742,8.38394 17.98889,-3.72 23.83236,-2.93276 -2.69465,-7.93637 -4.4902,-23.79377 1.76538,-6.56712 5.58871,10.43748 2.49825,23.38043 -6.90051,24.50255 3.24816,3.41215 4.04986,2.54044 2.21107,6.11733 z M 133.76,184.64 c -1.14727,-1.23018 1.18525,-0.8202 0,0 z m -5.92706,-1.54935 c -8.20531,-2.66701 5.56674,-0.94392 0,0 z M 104.48,134.27177 c -5.801248,-3.83796 -9.18069,-4.27428 -14.610174,-1.52544 -6.726659,-2.41283 -0.891154,-8.16597 7.289666,-9.22631 -17.03052,7.83112 26.040428,-2.65418 19.158678,7.36 -8.26178,-7.7064 -3.85133,4.72958 -11.83817,3.39175 z M 104.20114,128.64 c 4.95039,-2.56337 -4.491722,-2.8273 0,0 z m 48.54414,0.96 c 0.22779,-7.78549 18.23519,-5.02527 4.04357,-3.06463 l -2.60508,1.95978 z m -34.07561,-1.8255 c -3.81187,-2.31445 -16.24222,-9.2332 -3.024,-3.48433 1.00243,0.99477 3.11267,1.7243 3.024,3.48433 z m -38.429673,-2.37991 c -10.198246,-4.98923 10.499521,-5.34022 -0.1342,-0.97448 l 0.534201,0.80509 z m 44.498883,-1.57505 c -5.4742,-4.85925 -36.944111,-9.6772 -20.36566,-13.95307 6.94298,1.4024 22.28165,4.73759 20.36566,13.95307 z m -41.470141,-4.46286 c -7.131377,-9.20481 13.116592,-3.85952 2.118657,-1.18314 l -0.891259,0.5163 z m 56.605491,0.003 c -1.87588,-1.4333 1.55186,-4.64596 0,0 z m -45.748469,-4.49252 c -14.125222,-1.05929 5.913699,-5.98939 0,0 z m 93.400909,-9.43352 c -2.59559,0.15661 2.30147,-6.065966 0,0 z M 70.420116,101.76 c -0.539673,-3.081289 1.021372,-3.650363 0,0 z M 184.38399,83.520001 c -2.8279,-1.444261 0.78893,-2.536578 0,0 z m -27.10399,-33.6 c -6.18809,-1.552497 2.84945,-2.732917 0,0 z m -14.99239,-6.08 c -2.60347,-4.370703 3.6623,-1.801493 0,0 z M 140.32,42.106817 c -3.64072,-0.271652 2.07381,-2.464833 0,0 z M 116.52999,238.84911 c 0.22398,-1.62855 -1.66447,-0.1597 0,0 z M 151.9939,236.16 c 2.07755,-2.72078 -2.18841,-3.47111 0,0 z m 2.98552,-2.32647 c 0.11985,-2.62554 -0.21886,-0.10588 0,0 z M 163.0668,225.92 c 5.88713,-3.16314 -2.56871,-2.47138 0,0 z m 7.56999,-10.56 c 1.7285,-2.02591 -3.05052,-0.58097 0,0 z m 36.1229,-29.47404 c 7.37069,-1.85522 14.84212,-28.74559 4.89187,-11.36724 -1.64176,2.95132 -10.73573,8.82423 -4.89187,11.36724 z M 65.573904,184.79879 c 13.768088,-3.78755 -3.741581,-16.55912 1.003792,-24.15879 0.531105,-9.05037 -10.330871,-11.64587 -5.666588,-17.78525 11.283693,-1.3988 -12.342448,-28.11966 -9.635312,-12.37753 4.718179,4.86334 12.916316,11.80078 2.635019,8.75161 -12.566341,-8.97111 -4.214269,20.94354 -2.230673,28.7711 3.124431,5.88972 5.093873,17.52568 13.893762,16.79886 z M 51.413332,159.04 c -1.565404,-2.02129 0.840611,-3.14441 0,0 z m 155.687088,14.49176 c 6.63999,-4.45765 -2.88259,-4.5572 0,0 z m 6.64916,-4.57176 c 10.38978,-6.11235 -1.25812,-37.0985 -1.62241,-13.92 0.20124,4.19848 -4.18137,12.1511 1.62241,13.92 z M 208.63999,160 c 0.91993,-1.74949 -1.2229,-2.22186 0,0 z m 10.83622,-7.49294 c 2.746,-7.85101 -1.43254,-15.65148 -0.83741,-2.36061 l 0.20842,1.63281 z M 210.14459,139.52 c 9.21204,-1.1969 12.15386,-18.30113 1.75513,-7.68646 -1.162,0.91473 -4.84996,7.47452 -1.75513,7.68646 z m -44.18345,-8.96 c 4.60754,-2.73276 -4.36066,-2.49325 0,0 z M 55.729437,125.05019 c 1.46811,-1.22991 -1.2257,-1.10213 0,0 z m 0.100472,-12.90886 c 4.719682,-6.22594 -3.964293,-2.79435 0,0 z M 182.10156,68.160001 c 1.55698,-1.15763 -2.60617,-2.880053 0,0 z m -2.48678,-6.366784 c 0.72796,-1.620549 -1.72926,0.314848 0,0 z M 160.04886,44.1305 c -0.007,-5.379906 -1.68267,3.349943 0,0 z m -9.51538,0.669501 c 2.85853,-7.56193 -0.95322,-3.068135 0,0 z m 7.14587,-1.354548 c 1.89113,-4.889683 -4.86487,1.228969 0,0 z m -9.3841,-0.120238 c 4.37568,-2.796906 -2.86638,-0.05037 0,0 z M 153.76,41.920001 c 1.68607,-0.793384 -1.68607,-0.793384 0,0 z"
         id="path5"
         sodipodi:nodetypes="ccccccccccccccccccccccccccccccccccccccccccccccccccccccccccccccccccccccccccccccccccccccccccccccccccccccccccccccccccccccccccccccccccccccccccccccccccccccccccccccccccccccccccccccccccccccccccccccccccccccccccccccccccccccccccccccccccccccccccccccccccccccccccccccccccccccccccccccccccccccccccccccccccccccccccccccccccccccccccccccccccccccccccccccccccccccccccccccccccccccccccccccccccccccccccccccccccccccccccccccccccccccccccccccccccccccccc" />
    </g>
  </g>
  <metadata
     id="metadata1">
    <rdf:RDF>
      <cc:Work
         rdf:about="">
        <cc:license
           rdf:resource="http://creativecommons.org/licenses/by/4.0/" />
        <dc:title>Sergius Portrait </dc:title>
        <dc:date>25.07.2023</dc:date>
        <dc:creator>
          <cc:Agent>
            <dc:title>Sergius Muschalle</dc:title>
          </cc:Agent>
        </dc:creator>
        <dc:rights>
          <cc:Agent>
            <dc:title>Sergius Muschalle</dc:title>
          </cc:Agent>
        </dc:rights>
      </cc:Work>
      <cc:License
         rdf:about="http://creativecommons.org/licenses/by/4.0/">
        <cc:permits
           rdf:resource="http://creativecommons.org/ns#Reproduction" />
        <cc:permits
           rdf:resource="http://creativecommons.org/ns#Distribution" />
        <cc:requires
           rdf:resource="http://creativecommons.org/ns#Notice" />
        <cc:requires
           rdf:resource="http://creativecommons.org/ns#Attribution" />
        <cc:permits
           rdf:resource="http://creativecommons.org/ns#DerivativeWorks" />
      </cc:License>
    </rdf:RDF>
  </metadata>
</svg>
